<svg width="24" height="24" viewBox="0 0 24 24" fill="none" xmlns="http://www.w3.org/2000/svg">
<path d="M3 15V16.8C3 17.92 3 18.48 3.218 18.908C3.40974 19.2843 3.71569 19.5903 4.092 19.782C4.519 20 5.079 20 6.197 20H21M3 15V5M3 15L6.853 11.79L6.857 11.787C7.554 11.206 7.903 10.915 8.282 10.797C8.72913 10.6572 9.21116 10.6788 9.644 10.858C10.011 11.011 10.332 11.332 10.976 11.976L10.982 11.982C11.636 12.636 11.963 12.964 12.336 13.115C12.7774 13.2949 13.2686 13.3112 13.721 13.161C14.104 13.033 14.454 12.727 15.154 12.115L21 7" stroke="#75808A" stroke-width="2" stroke-linecap="round" stroke-linejoin="round"/>
</svg>
