<svg width="24" height="24" viewBox="0 0 24 24" fill="none" xmlns="http://www.w3.org/2000/svg">
<path d="M1 11.9912C1 11.6908 1.11448 11.4082 1.33323 11.1885L7.23362 5.28906C7.62424 4.89844 8.25706 4.89844 8.64768 5.28906L9.0012 5.64258C9.39182 6.0332 9.39182 6.66602 9.0012 7.05664L5.30784 10.75H17.4953C18.0481 10.75 18.4953 11.1973 18.4953 11.75V12.25C18.4953 12.8027 18.0481 13.25 17.4953 13.25H5.30784L9.0012 16.9424C9.39182 17.333 9.39182 17.9658 9.0012 18.3564L8.64768 18.71C8.25706 19.1006 7.62424 19.1006 7.23362 18.71L1.33323 12.8105C1.11057 12.5879 0.99983 12.2917 1 11.9912Z" fill="black"/>
</svg>
