<svg width="24" height="24" viewBox="0 0 24 24" fill="none" xmlns="http://www.w3.org/2000/svg">
<path d="M7.53007 6.53009C7.66255 6.38792 7.73468 6.19987 7.73125 6.00557C7.72782 5.81127 7.64911 5.62588 7.51169 5.48847C7.37428 5.35106 7.1889 5.27234 6.9946 5.26892C6.80029 5.26549 6.61225 5.33761 6.47007 5.47009L4.47007 7.47009C4.32962 7.61072 4.25073 7.80134 4.25073 8.00009C4.25073 8.19884 4.32962 8.38946 4.47007 8.53009L6.47007 10.5301C6.53873 10.6038 6.62153 10.6629 6.71353 10.7039C6.80553 10.7449 6.90485 10.7669 7.00555 10.7687C7.10625 10.7705 7.20628 10.7519 7.29967 10.7142C7.39306 10.6765 7.47789 10.6203 7.54911 10.5491C7.62033 10.4779 7.67647 10.3931 7.7142 10.2997C7.75192 10.2063 7.77044 10.1063 7.76866 10.0056C7.76689 9.90487 7.74485 9.80555 7.70385 9.71355C7.66286 9.62155 7.60376 9.53875 7.53007 9.47009L6.81007 8.75009H17.0001C17.199 8.75009 17.3898 8.67107 17.5304 8.53042C17.6711 8.38977 17.7501 8.199 17.7501 8.00009C17.7501 7.80118 17.6711 7.61041 17.5304 7.46976C17.3898 7.32911 17.199 7.25009 17.0001 7.25009H6.81007L7.53007 6.53009ZM16.4701 13.4701C16.3296 13.6107 16.2507 13.8013 16.2507 14.0001C16.2507 14.1988 16.3296 14.3895 16.4701 14.5301L17.1901 15.2501H7.00007C6.80116 15.2501 6.61039 15.3291 6.46974 15.4698C6.32909 15.6104 6.25007 15.8012 6.25007 16.0001C6.25007 16.199 6.32909 16.3898 6.46974 16.5304C6.61039 16.6711 6.80116 16.7501 7.00007 16.7501H17.1901L16.4701 17.4701C16.3964 17.5388 16.3373 17.6216 16.2963 17.7136C16.2553 17.8056 16.2333 17.9049 16.2315 18.0056C16.2297 18.1063 16.2482 18.2063 16.2859 18.2997C16.3237 18.3931 16.3798 18.4779 16.451 18.5491C16.5223 18.6203 16.6071 18.6765 16.7005 18.7142C16.7939 18.7519 16.8939 18.7705 16.9946 18.7687C17.0953 18.7669 17.1946 18.7449 17.2866 18.7039C17.3786 18.6629 17.4614 18.6038 17.5301 18.5301L19.5301 16.5301C19.6705 16.3895 19.7494 16.1988 19.7494 16.0001C19.7494 15.8013 19.6705 15.6107 19.5301 15.4701L17.5301 13.4701C17.3894 13.3296 17.1988 13.2508 17.0001 13.2508C16.8013 13.2508 16.6107 13.3296 16.4701 13.4701Z" fill="#75808A"/>
</svg>
