<svg width="20" height="20" viewBox="0 0 20 20" fill="none" xmlns="http://www.w3.org/2000/svg">
<g clip-path="url(#clip0_33_1665)">
<path fill-rule="evenodd" clip-rule="evenodd" d="M5 6.66667C5 3.90525 7.23857 1.66667 10 1.66667C12.7614 1.66667 15 3.90525 15 6.66667C15 9.42809 12.7614 11.6667 10 11.6667C7.23857 11.6667 5 9.42809 5 6.66667Z" fill="#805CF5"/>
<path fill-rule="evenodd" clip-rule="evenodd" d="M4.52578 14.0854C5.87989 13.5177 7.68608 13.3333 10 13.3333C12.3092 13.3333 14.1126 13.517 15.4655 14.0817C16.9177 14.6879 17.809 15.7177 18.2842 17.2156C18.4607 17.7722 18.0432 18.3333 17.466 18.3333H2.52882C1.95401 18.3333 1.53899 17.7747 1.71408 17.2212C2.18781 15.7234 3.07599 14.6932 4.52578 14.0854Z" fill="#805CF5"/>
</g>
<defs>
<clipPath id="clip0_33_1665">
<rect width="20" height="20" fill="white"/>
</clipPath>
</defs>
</svg>
