<svg width="24" height="24" viewBox="0 0 24 24" fill="none" xmlns="http://www.w3.org/2000/svg">
<path d="M18 2C18.7956 2 19.5587 2.31607 20.1213 2.87868C20.6839 3.44129 21 4.20435 21 5V19C21 19.7956 20.6839 20.5587 20.1213 21.1213C19.5587 21.6839 18.7956 22 18 22H6C5.20435 22 4.44129 21.6839 3.87868 21.1213C3.31607 20.5587 3 19.7956 3 19V5C3 4.20435 3.31607 3.44129 3.87868 2.87868C4.44129 2.31607 5.20435 2 6 2H18ZM8 17C7.73478 17 7.48043 17.1054 7.29289 17.2929C7.10536 17.4804 7 17.7348 7 18L7.007 18.127C7.0371 18.3801 7.16271 18.6121 7.35817 18.7757C7.55362 18.9393 7.80416 19.0221 8.05861 19.0072C8.31305 18.9922 8.55218 18.8807 8.72715 18.6954C8.90212 18.51 8.99972 18.2649 9 18.01L8.993 17.883C8.96434 17.6397 8.84741 17.4155 8.66437 17.2527C8.48134 17.09 8.24493 17 8 17ZM12 17C11.7348 17 11.4804 17.1054 11.2929 17.2929C11.1054 17.4804 11 17.7348 11 18L11.007 18.127C11.0371 18.3801 11.1627 18.6121 11.3582 18.7757C11.5536 18.9393 11.8042 19.0221 12.0586 19.0072C12.313 18.9922 12.5522 18.8807 12.7272 18.6954C12.9021 18.51 12.9997 18.2649 13 18.01L12.993 17.883C12.9643 17.6397 12.8474 17.4155 12.6644 17.2527C12.4813 17.09 12.2449 17 12 17ZM16 17C15.7348 17 15.4804 17.1054 15.2929 17.2929C15.1054 17.4804 15 17.7348 15 18L15.007 18.127C15.0371 18.3801 15.1627 18.6121 15.3582 18.7757C15.5536 18.9393 15.8042 19.0221 16.0586 19.0072C16.313 18.9922 16.5522 18.8807 16.7272 18.6954C16.9021 18.51 16.9997 18.2649 17 18.01L16.993 17.883C16.9643 17.6397 16.8474 17.4155 16.6644 17.2527C16.4813 17.09 16.2449 17 16 17ZM8 13C7.73478 13 7.48043 13.1054 7.29289 13.2929C7.10536 13.4804 7 13.7348 7 14L7.007 14.127C7.0371 14.3801 7.16271 14.6121 7.35817 14.7757C7.55362 14.9393 7.80416 15.0221 8.05861 15.0072C8.31305 14.9922 8.55218 14.8807 8.72715 14.6954C8.90212 14.51 8.99972 14.2649 9 14.01L8.993 13.883C8.96434 13.6397 8.84741 13.4155 8.66437 13.2527C8.48134 13.09 8.24493 13 8 13ZM12 13C11.7348 13 11.4804 13.1054 11.2929 13.2929C11.1054 13.4804 11 13.7348 11 14L11.007 14.127C11.0371 14.3801 11.1627 14.6121 11.3582 14.7757C11.5536 14.9393 11.8042 15.0221 12.0586 15.0072C12.313 14.9922 12.5522 14.8807 12.7272 14.6954C12.9021 14.51 12.9997 14.2649 13 14.01L12.993 13.883C12.9643 13.6397 12.8474 13.4155 12.6644 13.2527C12.4813 13.09 12.2449 13 12 13ZM16 13C15.7348 13 15.4804 13.1054 15.2929 13.2929C15.1054 13.4804 15 13.7348 15 14L15.007 14.127C15.0371 14.3801 15.1627 14.6121 15.3582 14.7757C15.5536 14.9393 15.8042 15.0221 16.0586 15.0072C16.313 14.9922 16.5522 14.8807 16.7272 14.6954C16.9021 14.51 16.9997 14.2649 17 14.01L16.993 13.883C16.9643 13.6397 16.8474 13.4155 16.6644 13.2527C16.4813 13.09 16.2449 13 16 13ZM15 6H9C8.46957 6 7.96086 6.21071 7.58579 6.58579C7.21071 6.96086 7 7.46957 7 8V9C7 9.53043 7.21071 10.0391 7.58579 10.4142C7.96086 10.7893 8.46957 11 9 11H15C15.5304 11 16.0391 10.7893 16.4142 10.4142C16.7893 10.0391 17 9.53043 17 9V8C17 7.46957 16.7893 6.96086 16.4142 6.58579C16.0391 6.21071 15.5304 6 15 6Z" fill="#75808A"/>
</svg>
