<svg width="24" height="24" viewBox="0 0 24 24" fill="none" xmlns="http://www.w3.org/2000/svg">
<path d="M12.2604 4.74757C12.1906 4.68081 12.0978 4.64355 12.0012 4.64355C11.9046 4.64355 11.8118 4.68081 11.742 4.74757L3.1123 12.9915C3.07566 13.0265 3.0465 13.0687 3.0266 13.1153C3.0067 13.162 2.99647 13.2122 2.99652 13.2629L2.99512 21.0001C2.99512 21.3979 3.15315 21.7794 3.43446 22.0607C3.71576 22.342 4.09729 22.5001 4.49512 22.5001H8.9998C9.19872 22.5001 9.38948 22.4211 9.53013 22.2804C9.67079 22.1398 9.7498 21.949 9.7498 21.7501V15.3751C9.7498 15.2756 9.78931 15.1802 9.85964 15.1099C9.92997 15.0396 10.0253 15.0001 10.1248 15.0001H13.8748C13.9743 15.0001 14.0696 15.0396 14.14 15.1099C14.2103 15.1802 14.2498 15.2756 14.2498 15.3751V21.7501C14.2498 21.949 14.3288 22.1398 14.4695 22.2804C14.6101 22.4211 14.8009 22.5001 14.9998 22.5001H19.5026C19.9004 22.5001 20.282 22.342 20.5633 22.0607C20.8446 21.7794 21.0026 21.3979 21.0026 21.0001V13.2629C21.0027 13.2122 20.9924 13.162 20.9725 13.1153C20.9526 13.0687 20.9235 13.0265 20.8868 12.9915L12.2604 4.74757Z" fill="#805CF5"/>
<path d="M23.0114 11.4445L19.5052 8.09016V3C19.5052 2.80109 19.4262 2.61032 19.2855 2.46967C19.1449 2.32902 18.9541 2.25 18.7552 2.25H16.5052C16.3063 2.25 16.1155 2.32902 15.9748 2.46967C15.8342 2.61032 15.7552 2.80109 15.7552 3V4.5L13.0402 1.90406C12.7861 1.64719 12.4083 1.5 12 1.5C11.5931 1.5 11.2163 1.64719 10.9622 1.90453L0.991893 11.4436C0.70033 11.7248 0.663768 12.1875 0.92908 12.4922C0.995704 12.5691 1.07728 12.6316 1.16885 12.676C1.26041 12.7204 1.36005 12.7457 1.46169 12.7503C1.56334 12.755 1.66487 12.7389 1.7601 12.7031C1.85533 12.6672 1.94228 12.6124 2.01564 12.5419L11.7422 3.2475C11.812 3.18074 11.9048 3.14348 12.0014 3.14348C12.098 3.14348 12.1909 3.18074 12.2606 3.2475L21.9881 12.5419C22.1314 12.6793 22.3234 12.7543 22.5219 12.7504C22.7204 12.7465 22.9092 12.6641 23.047 12.5212C23.3349 12.2231 23.311 11.7309 23.0114 11.4445Z" fill="#805CF5"/>
</svg>
